<?xml version="1.0" standalone="no"?><!DOCTYPE svg PUBLIC "-//W3C//DTD SVG 1.1//EN" "http://www.w3.org/Graphics/SVG/1.1/DTD/svg11.dtd"><svg t="1599372552019" class="icon" viewBox="0 0 1024 1024" version="1.1" xmlns="http://www.w3.org/2000/svg" p-id="6390" xmlns:xlink="http://www.w3.org/1999/xlink" width="200" height="200"><defs><style type="text/css"></style></defs><path d="M512 1024C229.040504 1024 0 794.959496 0 512 0 229.040504 229.040504 0 512 0c282.959496 0 512 229.040504 512 512 0 282.959496-229.040504 512-512 512z m-49.310531-376.972097" fill="#39C146" p-id="6391"></path><path d="M458.081008 656.244824l-146.549055-148.392439-96.316831 92.169217c70.048605 37.789379 168.669667 106.916292 253.0045 213.832583 59.449145-111.985599 242.865887-341.026103 332.270027-361.30333-14.286229-57.605761-22.581458-165.90459 0-223.971197-183.416742 120.741674-342.408641 427.665167-342.408641 427.665166" fill="#FFFFFF" p-id="6392"></path></svg>